<svg version="1.1" xmlns="http://www.w3.org/2000/svg" style="display: block;" viewBox="0 0 2048 1619" width="1536" height="1214" preserveAspectRatio="none">
<defs>
	<linearGradient id="Gradient1" gradientUnits="userSpaceOnUse" x1="1292.58" y1="1042.57" x2="1240.33" y2="1043.03">
		<stop class="stop0" offset="0" stop-opacity="1" stop-color="rgb(7,9,8)"/>
		<stop class="stop1" offset="1" stop-opacity="1" stop-color="rgb(60,55,63)"/>
	</linearGradient>
	<linearGradient id="Gradient2" gradientUnits="userSpaceOnUse" x1="1094.44" y1="906.062" x2="1829.68" y2="510.825">
		<stop class="stop0" offset="0" stop-opacity="1" stop-color="rgb(6,7,5)"/>
		<stop class="stop1" offset="1" stop-opacity="1" stop-color="rgb(45,39,47)"/>
	</linearGradient>
	<linearGradient id="Gradient3" gradientUnits="userSpaceOnUse" x1="1190.13" y1="732.512" x2="1965.89" y2="704.863">
		<stop class="stop0" offset="0" stop-opacity="1" stop-color="rgb(0,0,0)"/>
		<stop class="stop1" offset="1" stop-opacity="1" stop-color="rgb(41,39,41)"/>
	</linearGradient>
</defs>
<path transform="translate(0,0)" fill="rgb(254,252,253)" d="M 0 0 L 2048 0 L 2048 1619 L 0 1619 L 0 0 z"/>
<path transform="translate(0,0)" fill="url(#Gradient3)" d="M 1694.35 94.0961 C 1717.66 99.8408 1756.27 125.332 1779.11 136.887 C 1838.48 166.911 1895.8 191.551 1951.02 229.344 C 1952.47 252.07 1952.31 278.782 1952.53 301.891 L 1952.84 438.809 L 1953.01 808.353 L 1953.04 1113.36 L 1952.96 1210.32 C 1952.91 1232.66 1953.3 1256.59 1951.38 1278.71 C 1937.73 1279.19 1928.82 1285.69 1916.33 1289.57 C 1865.61 1305.31 1811.18 1310.83 1759.19 1320.65 C 1745.82 1323.25 1732.5 1326.06 1719.22 1329.1 C 1714.53 1330.22 1698.58 1334.67 1694.66 1334.96 C 1679.39 1336.08 1657.06 1332.21 1641.59 1330.31 C 1622.98 1328.04 1604.35 1326.01 1585.69 1324.23 C 1538.77 1319.98 1491.79 1316.53 1444.75 1313.88 C 1375.49 1309.78 1307.36 1301.93 1238.44 1294.62 C 1230.08 1293.73 1217.26 1294.83 1209.86 1291.77 L 1209.71 1290.61 C 1216.2 1287.91 1233.68 1288.52 1241.42 1289.05 C 1285.46 1292.09 1329.66 1298.51 1373.67 1302 C 1453.99 1308.36 1534.23 1311.84 1614.41 1320.2 C 1641.53 1323.03 1664.43 1327.76 1690.93 1331.6 C 1691.66 1298.07 1691.17 1262.58 1691.26 1228.92 L 1691.71 1027.38 L 1692.26 409.964 L 1692.71 190.811 L 1692.82 132.922 C 1692.85 122.157 1692.34 104.019 1694.35 94.0961 z"/>
<path transform="translate(0,0)" fill="rgb(254,252,253)" d="M 1699.05 100.556 C 1704.34 102.49 1720.53 112.034 1726.05 115.246 C 1740.85 124.04 1755.83 132.534 1770.98 140.725 C 1830.63 172.31 1887.72 198.48 1946.89 232.844 C 1945.26 272.014 1945.95 314.658 1945.86 354.107 L 1945.48 553.363 L 1945.26 1273.1 C 1934.02 1278.2 1917.98 1283.14 1906.03 1286.71 C 1840.35 1304.08 1768.27 1311.36 1699.79 1328.41 L 1699.15 468.476 L 1698.25 221.104 L 1698.08 146.428 C 1698.07 133.752 1697.63 112.695 1699.05 100.556 z"/>
<path transform="translate(0,0)" fill="rgb(3,2,3)" d="M 376.751 319.417 C 392.901 317.034 416.491 320.254 431.505 326.107 C 439.618 329.269 447.35 333.412 455.562 336.546 C 477.048 331.119 515.388 332.641 536.715 338.584 C 541.053 339.793 546.051 340.166 548.332 343.95 L 546.993 345.607 C 542.014 346.189 533.818 343.72 528.42 342.842 C 505.31 339.085 483.845 338.846 460.519 340.636 C 465.709 344.497 471.16 348.322 476.422 352.115 C 498.358 352.103 521.473 351.264 541.037 362.828 C 544.952 365.143 552.458 371.509 549.309 376.452 C 545.495 376.127 525.978 363.68 519.049 361.83 C 506.425 358.461 496.309 358.477 483.409 357.833 C 517.326 392.484 537.923 445.693 522.379 493.841 C 495.49 577.137 417.336 612.677 334.828 588.301 C 329 601.32 325.093 615.959 318.776 629.455 C 331.651 670.844 340.49 712.015 351.739 753.688 C 358.065 777.125 368.6 802.428 376.849 825.665 C 333.923 869.117 296.756 902.636 251.523 942.989 L 251.848 944.119 C 262.875 948.151 266.292 952.494 272.042 962.847 C 277.483 972.643 278.541 989.453 265.865 994.045 C 253.077 998.679 246.087 978.352 242.529 969.483 C 238.623 1027.61 252.456 1104.67 259.666 1163.73 C 268.337 1236.79 276.626 1309.89 284.534 1383.04 C 288.996 1424.44 294.949 1470.65 297.536 1511.95 C 312.286 1505.78 366.335 1485.73 376.582 1500.18 C 375.219 1517.44 306.456 1521.49 292.177 1520.92 C 287.014 1484.54 283.535 1441.39 279.618 1404.47 L 257.641 1203.76 L 239.17 1049.46 C 232.004 1096.77 177.807 1466.07 162.084 1486.67 C 147.955 1491.54 101.652 1475.45 95.5605 1462.15 C 96.1267 1445.99 159.666 1461.53 159.751 1478.56 C 157.279 1478.61 150.269 1473.81 147.632 1472.22 C 131.034 1462.22 117.199 1460.43 98.4158 1460.88 C 107.37 1467.45 152.597 1489 161.571 1482.04 C 164.153 1474.29 166.114 1457.39 167.745 1448.24 L 182.093 1368.3 C 195.299 1295.11 207.651 1221.78 219.144 1148.31 C 224.599 1113.19 231.365 1072.46 234.973 1037.41 C 236.76 1020.07 235.557 982.642 236.03 962.577 C 226.985 973.271 222.614 978.036 210.052 983.941 C 189.887 971.679 224.036 943.753 233.576 934.776 C 226.1 922.743 214.125 909.929 206.267 896.875 C 190.146 870.098 172.997 838.041 159.804 809.712 C 210.844 753.772 267.492 696.796 309.023 632.899 C 317.332 620.115 324.104 601.904 329.269 587.446 C 315.328 577.401 299.663 573.313 283.578 559.096 C 262.663 540.611 245.68 517.891 243.198 489.214 C 239.254 443.619 247.409 400.968 277.653 365.399 C 284.175 357.58 291.814 350.766 300.325 345.176 C 317.349 334.218 356.254 321.133 376.751 319.417 z"/>
<path transform="translate(0,0)" fill="rgb(254,252,253)" d="M 369.84 326.417 C 398.319 322.931 441.747 333.431 463.767 355.426 C 464.364 356.022 462.654 359.283 462.273 360.193 C 465.782 363.084 469.218 357.326 476.6 364.7 C 505.161 393.229 517.756 423.37 518.084 463.513 C 513.051 457.954 480.602 426.779 475.872 428.619 C 477.209 435.375 483.381 442.04 487.806 447.32 C 481.45 457.082 468.252 481.196 479.887 491.12 C 494.473 494.68 500.193 469.531 502.107 459.38 C 505.71 461.484 512.303 465.669 515.963 464.458 C 516.868 464.158 516.601 464.302 517.62 464.947 C 523.771 482.502 505.033 520.741 494.539 535.885 C 469.865 531.81 439.154 531.805 414.23 534.172 C 406.514 534.905 376.143 538.702 371.988 543.886 L 373.586 545.145 C 378.498 546.309 384.163 544.655 389.252 543.661 C 417.954 537.924 461.782 536.753 490.672 541.227 C 485.879 547.021 480.614 552.408 474.929 557.33 C 445.959 581.997 410.742 590.835 373.369 587.522 C 366.787 586.939 342.207 583.384 338.123 578.484 C 338.505 576.2 339.103 574.615 338.059 572.641 C 335.411 573.416 334.181 575.548 332.343 577.771 C 326.666 575.08 321.057 572.248 315.521 569.276 C 287.98 554.465 261.185 530.182 253.131 498.412 C 238.612 441.14 263.76 355.338 326.887 338.874 C 335.099 336.732 344.595 336.869 352.855 334.447 L 352.694 333.438 C 350.485 332.343 348.655 331.459 346.378 330.515 C 353.37 327.858 362.343 327.162 369.84 326.417 z"/>
<path transform="translate(0,0)" fill="rgb(254,252,253)" d="M 315.243 640.643 C 318.525 645.18 332.022 703.652 334.007 712.883 C 342.847 754 352.935 786.317 370.67 824.636 C 364.21 833.442 345.408 850.935 336.745 859.085 L 275.988 915.3 C 270.166 920.49 253.748 935.863 247.527 938.752 L 245.903 937.129 C 244.489 930.88 247.898 907.361 248.81 900.101 C 257.708 828.179 273.963 757.36 297.318 688.757 C 302.44 673.78 308.632 654.656 315.243 640.643 z"/>
<path transform="translate(0,0)" fill="rgb(254,252,253)" d="M 304.698 649.824 C 304.614 653.845 290.091 691.15 287.948 697.511 C 282.276 714.536 277.006 731.692 272.142 748.965 C 256.924 803.08 242.836 875.184 239.243 930.954 C 230.78 917.2 218.678 901.925 209.209 887.5 C 193.336 861.83 182.569 836.025 165.331 810.412 C 201.594 774.391 235.926 736.479 268.184 696.832 C 280.053 682.344 293.078 663.013 304.698 649.824 z"/>
<path transform="translate(0,0)" fill="rgb(254,252,253)" d="M 247.363 947.894 L 247.74 948.01 C 265.039 953.465 274.257 970.291 268.407 987.644 C 253.788 996.153 245.393 958.965 247.363 947.894 z"/>
<path transform="translate(0,0)" fill="rgb(254,252,253)" d="M 235.858 938.666 L 237.258 939.94 C 240.214 954.628 223.391 971.654 211.6 978.16 C 202.171 966.417 227.85 945.941 235.858 938.666 z"/>
<path transform="translate(0,0)" fill="rgb(254,252,253)" d="M 351.584 1501.37 C 356.021 1501.13 366.869 1499.95 370.041 1502.36 C 366.399 1508.94 328.94 1512.55 321.031 1513.66 C 314.41 1514.75 306.858 1515.32 300.116 1515.97 C 316.827 1508.53 333.341 1503.38 351.584 1501.37 z"/>
<path transform="translate(0,0)" fill="rgb(3,2,3)" d="M 922.657 561.642 C 909.639 558.534 890.995 558.073 878.021 562.046 C 872.378 563.774 863.375 568.382 857.923 567.854 C 858.12 567.627 858.317 567.4 858.514 567.173 C 880.889 549.499 905.392 555.731 931.426 556.877 C 934.637 557.019 939.494 555.884 941.35 553.841 L 940.348 551.63 C 929.358 543.625 901.528 547.204 888.453 547.563 C 902.866 534.61 936.443 541.669 950.943 552.903 C 979.3 553.074 997.516 554.424 1022.72 569.208 C 1051.52 586.105 1065.71 603.952 1080.14 632.942 C 1101.49 631.492 1100.64 632.94 1102.05 651.332 C 1103.94 671.617 1103.79 690.902 1099.69 711.015 C 1089.08 763.199 1061.91 801.699 1018.7 831.526 C 1028.85 835.828 1047.4 841.147 1058.08 842.946 L 1061.7 844.475 C 1099.46 849.023 1148 852.429 1185.42 844.185 C 1233.78 833.529 1283.13 816.062 1327.62 794.73 C 1311.45 811.269 1287.6 817.84 1266.28 825.621 C 1207.01 847.251 1157.72 859.955 1093.77 853.892 C 1059.29 850.623 1044.62 849.985 1011.78 834.33 C 993.662 837.631 975.066 841.305 955.931 838.575 C 944.57 833.497 935.256 841.424 940.257 850.747 C 943.486 856.769 999.231 850.325 1008.27 850.588 C 1013.82 850.749 1017.64 848.429 1022.36 849.716 L 1022.69 851.043 C 1014.07 857.925 968.185 854.782 957.48 857.957 L 957.516 858.819 C 987.183 875.199 1062.89 877.397 1095.82 878.017 C 1118.35 878.442 1217.59 877.155 1233.6 869.082 C 1282.73 844.31 1365.57 765.225 1404.82 726.83 C 1403.75 725.354 1401.36 721.765 1400.92 719.992 C 1396.79 703.223 1419.13 657.5 1440.5 669.337 C 1445.33 672.011 1445.16 679.398 1446.23 684.461 L 1447.97 685.456 C 1451.83 684.513 1453.4 683.874 1457.35 684.283 C 1463.57 687.62 1465.69 697.248 1463.53 703.514 C 1459.14 722.54 1436.46 725.601 1427.06 734.001 C 1404.92 753.811 1384.44 768.222 1358.64 783.466 C 1376.35 762.207 1406.48 751.931 1425.11 728.932 C 1424.98 726.243 1425.47 727.402 1423.36 725.447 C 1417.74 724.449 1409.81 729.672 1405.5 733.315 C 1394.54 742.563 1378.37 759.166 1368.67 768.396 C 1348.05 788.038 1259.29 865.206 1237.66 872.317 C 1186.08 889.27 1054.24 885.743 997.636 876.655 C 980.1 873.84 955.261 864.169 939.738 858.249 C 936.379 872.225 933.908 888.346 931.25 902.67 C 916.832 984.513 908.328 1067.29 905.804 1150.35 C 959.799 1196.22 1011.82 1242.8 1063.11 1291.64 C 1072.92 1300.97 1103.88 1327.26 1110.18 1335.7 L 1109.91 1336.97 C 1105.66 1338.76 1090.19 1337.29 1089.05 1331.51 C 1091.52 1329.66 1092.34 1330.94 1096.75 1331.4 C 1095.52 1328.51 1088.52 1323.41 1085.72 1320.95 C 1043.17 1283.57 1003.74 1242.57 961.006 1205.37 C 949.289 1195.17 933.384 1178.11 920.759 1170.32 L 919.642 1169.64 C 959.921 1210.5 997.748 1253.81 1037.76 1294.96 C 1042.39 1299.72 1075.27 1333.02 1075.35 1336.43 C 1067.01 1341.33 1003.56 1328.68 990.833 1326.4 C 954.689 1319.99 918.608 1313.22 882.598 1306.1 C 852.708 1300.25 822.539 1293.77 792.367 1289.81 C 791.505 1303.35 773.621 1351.4 753.39 1344.43 C 735.174 1338.16 769.689 1286.37 780.333 1284.85 C 808.695 1280.81 856.643 1295.61 885.765 1300.04 C 892.045 1300.97 904.944 1305.3 910.682 1304.55 L 912.174 1299.46 L 913.462 1299.02 L 914.648 1300.12 C 914.112 1302.14 913.805 1303.27 913.475 1305.36 C 924.316 1308.8 955.216 1314 967.734 1316.3 C 999.653 1322.17 1034.47 1329.53 1066.54 1333.39 C 1057.48 1323.56 1045.84 1312.68 1036.26 1302.68 C 1007.6 1272.79 979.303 1242.55 951.37 1211.98 C 934.145 1193.11 917.367 1175.18 901.257 1155.28 C 899.275 1130.38 901.521 1101.89 903.469 1076.86 C 906.507 1037.15 910.762 997.549 916.23 958.101 C 920.046 929.917 928.805 886.821 932.675 857.162 C 932.8 856.206 929.511 854.375 928.247 853.508 L 932.47 852.063 C 934.292 849.437 934.647 840.027 935.181 835.928 C 910.325 830.412 900.486 826.59 878.893 812.369 C 838.193 785.567 819.665 755.091 809.912 708.39 L 802.722 702.889 C 809.045 689.347 817.685 684.134 829.652 676.029 C 833.579 631.622 855.314 591.907 894.591 569.847 C 869.744 574.927 858.593 582.763 839.556 598.069 C 848.169 579.432 870.263 569.554 889.655 566.293 C 901.342 564.329 910.634 564.988 922.657 561.642 z"/>
<path transform="translate(0,0)" fill="rgb(254,252,253)" d="M 1070.76 642.517 L 1073.01 642.193 C 1081.48 647.649 1082.01 677.398 1082.07 687.086 C 1082.2 709.436 1076.06 727.184 1064.3 745.75 C 1047.25 772.382 1020.17 790.996 989.2 797.36 C 967.128 802.056 934.367 799.932 913.439 790.892 C 901.795 785.862 890.161 778.317 879.499 771.309 C 854.177 751.649 840.361 732.646 836.796 700.498 C 903.965 660.851 993.858 645.337 1070.76 642.517 z"/>
<path transform="translate(0,0)" fill="rgb(3,2,3)" d="M 988.535 691.416 C 1002.44 690.686 1015.61 690.28 1026.84 699.848 C 1033.69 705.696 1038.8 714.616 1030.7 721.932 C 1017.77 733.616 996.347 733.738 979.821 734.433 C 972.896 734.725 959.188 734.496 954.054 729.454 C 963.326 721.488 1022.94 735.127 1026.54 713.555 C 1023.36 700.772 1005.58 697.969 994.595 697.888 C 958.101 697.781 923.214 708.747 894.531 731.347 C 889.023 735.687 882.968 740.453 876.911 743.925 L 875.814 744.544 C 898.176 710.689 949.78 694.701 988.535 691.416 z"/>
<path transform="translate(0,0)" fill="rgb(254,252,253)" d="M 945.646 560.413 C 980.629 555.862 1013.29 568.754 1039.46 591.498 C 1023.19 591.771 1009.24 592.908 993.006 594.397 C 986.228 587.206 971.657 577.99 961.464 581.375 C 963.777 584.943 980.995 590.644 987.08 593.95 L 988.307 594.625 C 973.15 597.982 951.657 599.745 934.783 602.99 C 916.41 606.321 900.738 610.484 882.796 615.642 C 884.588 614.286 896.783 605.502 896.512 603.771 C 887.797 607.625 879.751 614.56 873.223 617.405 C 865.853 620.616 857.804 622.277 848.82 626.285 C 861.035 600.566 880.428 577.104 909.593 570.348 C 915.878 568.892 923.158 569.432 930.133 567.865 L 930.542 566.801 L 925.809 564.117 L 925.596 562.998 C 930.17 561.313 940.356 560.86 945.646 560.413 z"/>
<path transform="translate(0,0)" fill="rgb(254,252,253)" d="M 1094.89 653.752 C 1097.94 656.286 1097.71 663.46 1097.89 667.177 C 1100.57 723.503 1075.18 779.343 1032.76 815.985 C 1008.12 837.268 979.353 834.521 948.9 831.608 L 945.586 830.791 C 944.073 827.824 948.384 821.454 949.151 817.746 C 949.965 813.809 950.208 811.011 950.305 807.04 C 987.072 806.896 1021.39 798.921 1048.79 772.781 C 1070.53 752.042 1089.4 717.95 1089.96 687.371 C 1090.12 678.555 1089.01 667.636 1089.04 658.574 C 1089.05 656.457 1092.8 654.967 1094.89 653.752 z"/>
<path transform="translate(0,0)" fill="rgb(254,252,253)" d="M 826.594 703.996 L 828.88 704.264 C 829.444 705.197 833.835 723.754 835.313 728.219 C 845.96 760.392 880.052 785.356 910.454 797.413 C 920.78 801.508 931.818 802.777 942.652 808.126 L 943.963 808.788 C 938.531 819.773 943.368 823.538 936.863 829.748 C 911.297 827.826 869.771 797.198 850.889 779.593 C 833.739 763.603 819.815 731.199 814.932 707.852 L 826.594 703.996 z"/>
<path transform="translate(0,0)" fill="rgb(254,252,253)" d="M 888.235 624.224 C 892.776 623.776 898.304 624.005 902.939 624.05 C 905.29 626.458 907.343 629.139 909.054 632.037 C 918.941 648.833 911.503 657.957 896.396 665.682 C 867.393 672.826 860.278 638.047 888.235 624.224 z"/>
<path transform="translate(0,0)" fill="rgb(3,2,3)" d="M 890.062 628.794 C 908.21 629.409 903.358 648.684 893.193 658.093 C 879.152 659.171 878.376 638.21 890.062 628.794 z"/>
<path transform="translate(0,0)" fill="rgb(254,252,253)" d="M 1428.25 672.868 C 1431.68 672.765 1437.68 673.053 1439.1 676.883 C 1445.26 693.49 1429.16 714.72 1415.85 722.3 C 1411.37 723.058 1409.92 722.804 1406.33 719.974 C 1404.17 716.322 1404.14 713.834 1404.88 709.53 C 1407.54 694.71 1415.94 681.537 1428.25 672.868 z"/>
<path transform="translate(0,0)" fill="rgb(254,252,253)" d="M 967.659 607.304 L 978.476 607.044 C 997.869 618.323 988.953 634.39 971.732 641.705 C 962.343 642.234 953.256 640.098 950.612 629.614 C 949.476 625.021 950.276 620.162 952.824 616.175 C 956.741 609.94 961.131 608.641 967.659 607.304 z"/>
<path transform="translate(0,0)" fill="rgb(3,2,3)" d="M 964.03 609.797 C 965.126 609.841 966.219 609.952 967.302 610.129 C 978.876 611.992 980.044 630.266 967.871 638.414 C 950.582 636.642 952.399 619.519 964.03 609.797 z"/>
<path transform="translate(0,0)" fill="rgb(254,252,253)" d="M 781.449 1287.42 C 783.327 1288.08 783.849 1288.94 785.248 1290.39 C 790.954 1305.18 771.16 1332.65 758.565 1340.08 L 756.026 1339.04 C 746.749 1327.11 772.818 1295.17 781.449 1287.42 z"/>
<path transform="translate(0,0)" fill="rgb(254,252,253)" d="M 1451.43 687.659 C 1459.11 689.262 1461.57 696.399 1458.22 703.184 C 1452.35 715.074 1445 721.379 1432.86 726.229 C 1429.66 725.175 1428.29 724.143 1427.76 721.023 C 1429.81 716.873 1433.92 714.229 1437.65 711.223 C 1439.98 700.573 1445.76 703.735 1445.44 693.078 C 1447.12 689.826 1448.14 689.868 1451.43 687.659 z"/>
<path transform="translate(0,0)" fill="rgb(254,252,253)" d="M 827.308 682.742 L 828.423 683.132 C 829.481 686.642 828.86 694.421 828.72 698.431 C 822.25 700.048 819.54 700.587 812.923 701.214 L 810.863 699.03 C 811.712 694.183 823.069 686.112 827.308 682.742 z"/>
<path transform="translate(0,0)" fill="rgb(254,252,253)" d="M 1082.16 637.494 C 1087.52 637.665 1092.39 636.766 1095.38 641.693 C 1095.27 645.347 1095.14 645.763 1093.38 648.967 C 1090.15 651.061 1091.01 651.147 1087.65 651.376 C 1084.15 648.788 1083.34 642.134 1082.16 637.494 z"/>
<path transform="translate(0,0)" fill="url(#Gradient2)" d="M 1058.08 842.946 C 1067.76 836.023 1139 825.848 1147.39 817.815 C 1170.74 795.461 1225.92 751.175 1241.99 726.557 C 1239.14 683.09 1240.16 636.286 1240.21 592.517 L 1240.27 401.463 L 1240.57 292.604 C 1240.65 278.904 1239.66 238.281 1243.21 227.198 C 1247.26 223.143 1275.59 221.536 1282.35 221.067 C 1404.1 212.625 1527.8 175.737 1649.13 168.413 C 1651.21 198.591 1650.39 240.789 1650.55 272.066 L 1650.9 467.343 L 1651 1040.32 C 1651.02 1093.79 1650.96 1150.77 1651.37 1204.56 C 1651.38 1205.67 1656.06 1206.85 1654.94 1209.33 C 1616.5 1210.13 1575.27 1208.21 1536.47 1207.91 C 1456.41 1207.35 1376.35 1207.48 1296.3 1208.3 C 1295.59 1206.08 1294.91 1203.85 1294.24 1201.61 C 1349.35 1199.34 1413.96 1201.39 1469.84 1200.96 C 1520.35 1200.58 1594.83 1199.31 1644.26 1205.1 L 1644.68 173.609 C 1605.36 178.212 1566.13 183.546 1527.01 189.609 C 1461.27 200.149 1396.03 212.612 1329.92 220.617 C 1301.89 224.012 1274.41 225.909 1246.41 228.744 L 1245.91 682.27 L 1249.81 687.15 C 1255.55 676.374 1260.57 675.445 1265.14 668.232 C 1283.22 639.093 1320.37 607.663 1356.32 623.851 C 1381.8 635.322 1386.61 687.71 1374.27 708.716 C 1356.82 738.429 1315.98 758.487 1282.67 742.615 C 1264.58 733.994 1273.05 714.912 1255.93 717.888 C 1249.09 723.056 1243.46 733.807 1237.25 740.325 C 1213.11 765.677 1187.77 787.558 1162.27 811.753 C 1144.12 828.975 1114.03 832.865 1090.3 838.931 C 1082.54 840.913 1068.2 841.292 1061.7 844.475 L 1058.08 842.946 z"/>
<path transform="translate(0,0)" fill="rgb(254,252,253)" d="M 1245.91 682.27 L 1249.81 687.15 C 1248.29 691.651 1247.92 695.431 1245.75 699.66 C 1244.96 695.65 1245.69 686.774 1245.91 682.27 z"/>
<path transform="translate(0,0)" fill="rgb(254,252,253)" d="M 1317.84 629.198 C 1323.31 623.206 1345.36 624.352 1351.95 628.347 L 1352.26 630.043 C 1342.4 639.34 1339.51 639.595 1332.26 651.318 C 1340.83 646.436 1349.4 637.928 1357.08 631.338 C 1360.75 635.299 1375.94 651.869 1368.81 657.183 C 1365.56 659.604 1358.97 661.044 1355.73 664.498 L 1356.4 665.939 C 1360.38 667.288 1364.85 664.893 1368.51 663.094 C 1369.97 662.379 1371.41 661.646 1372.85 660.896 C 1374.12 669.965 1374.64 679.123 1374.42 688.278 C 1370.67 688.313 1365.13 687.889 1362.02 689.446 L 1362.16 690.831 C 1365.97 693.486 1374.45 689.482 1374.09 696.308 C 1373.52 707.469 1362 719.636 1354.11 725.793 C 1349.07 729.415 1338.8 735.974 1333.08 738.208 C 1323.08 742.117 1325.61 735.656 1321.2 733.577 C 1318.5 736.132 1321.11 736.087 1319.45 741.304 C 1312.66 743.332 1301.46 741.846 1294.04 741.231 C 1295.29 738.617 1297.09 735.884 1296.5 733.233 C 1293.92 733.891 1292.02 736.676 1290.14 738.807 C 1286.8 737.093 1281.35 734.886 1280.06 731.507 C 1281.26 729.719 1282.26 728.47 1283.59 726.815 L 1281.88 726.094 C 1279.38 727.426 1278.91 727.931 1276.09 727.499 C 1272.78 725.194 1271.85 721.813 1270.16 717.983 C 1278.17 715.234 1282.16 713.824 1289.81 709.8 C 1306.52 719.43 1305.63 712.713 1319.49 704.752 C 1322.48 704.727 1323.07 705.427 1325.55 707.066 C 1324.44 709.886 1318.14 711.834 1314.14 716.314 L 1314.56 717.765 C 1318.33 718.983 1321.72 719.167 1325.22 716.113 C 1354.35 690.675 1348.19 641.955 1301.11 655.454 C 1287.56 659.34 1290.84 666.561 1271.54 665.939 C 1273.76 662.46 1275.53 659.051 1278.75 656.563 C 1281.94 656.522 1284.8 656.539 1286.98 654.074 L 1284.66 650.799 C 1285.94 643.954 1306.65 631.605 1313.5 629.091 L 1312.9 628.024 C 1315.13 628.197 1315.96 628.028 1317.84 629.198 z"/>
<path transform="translate(0,0)" fill="rgb(3,2,3)" d="M 1338.76 716.386 C 1345.55 716.675 1351.11 719.364 1354.11 725.793 C 1346.59 725.061 1341.73 723.848 1338.76 716.386 z"/>
<path transform="translate(0,0)" fill="rgb(3,2,3)" d="M 1313.5 629.091 L 1312.9 628.024 C 1315.13 628.197 1315.96 628.028 1317.84 629.198 C 1315.13 636.153 1312.93 641.264 1309.65 647.963 C 1310.5 641.002 1311.83 635.844 1313.5 629.091 z"/>
<path transform="translate(0,0)" fill="rgb(254,252,253)" d="M 1275.44 672.225 C 1282.75 671.392 1293.31 673.125 1295.24 680.613 C 1300.02 699.07 1283.98 707.414 1271.36 711.311 C 1244.78 717.299 1248.57 687.111 1264.02 676.684 C 1266.72 674.861 1272.22 673.273 1275.44 672.225 z"/>
<path transform="translate(0,0)" fill="rgb(254,252,253)" d="M 1308.8 658.203 C 1311.53 658.018 1315.72 658.706 1317.31 661.064 C 1328.09 676.969 1320.6 709.754 1297.76 708.909 C 1289.44 699.2 1318.87 688.085 1289.61 665.115 C 1296.99 661.433 1300.84 660.142 1308.8 658.203 z"/>
<path transform="translate(0,0)" fill="rgb(254,252,253)" d="M 1323.35 657.691 C 1330.14 659.662 1331.3 660.311 1334.69 666.455 C 1327.52 666.055 1326.38 663.794 1323.35 657.691 z"/>
<path transform="translate(0,0)" fill="rgb(3,2,3)" d="M 809.179 1150.53 C 819.89 1128.1 825.933 1104.56 835.446 1081.77 C 836.581 1079.05 837.967 1077.16 840.542 1075.72 C 872.654 1068.79 837.648 1138.74 831.868 1148.19 L 847.755 1148.11 C 847.661 1153.82 858.284 1200.55 860.272 1210.09 C 862.801 1204.12 863.637 1201.53 865.263 1195.25 L 863.697 1194.21 C 858.863 1189.48 861.489 1183.11 862.622 1176.9 L 860.113 1175.97 C 853.952 1167.54 863.066 1167.55 855.953 1156.49 L 857.364 1155.11 C 862.152 1153.8 865.117 1154.38 869.984 1154.83 L 870.811 1156.87 C 871.14 1161.4 872.789 1161.1 873.755 1165.35 C 880.32 1149.27 876.663 1142.2 879.618 1134.87 L 881.172 1134.3 C 888.077 1138.22 892.17 1148.58 892.213 1156.18 C 899.538 1164.32 905.382 1174.66 906.911 1185.51 C 911.303 1216.66 908.88 1248.44 911.005 1279.82 C 911.083 1280.98 910.565 1283.55 910.305 1284.69 L 909.145 1285.24 C 901.38 1278.24 904.789 1223.24 905.022 1211.22 C 894.593 1217.92 887.483 1221 875.829 1225.36 C 888.96 1214.88 896.281 1214.53 907.314 1201.46 C 904.867 1193.53 904.091 1189.23 902.751 1181.04 C 891.76 1194.21 882.755 1208.24 871.162 1222.05 L 871.689 1220.63 C 877.435 1205.4 900.66 1183.67 898.204 1173.59 C 892.72 1169.74 892.542 1174.27 890.003 1170.07 L 890.436 1168.45 L 894.579 1168.54 C 894.31 1166.13 893.568 1166.19 891.416 1163.97 L 889.768 1164.35 C 883.3 1180.06 882.406 1187.47 872.741 1202.2 L 873.066 1200.84 C 876.646 1186.13 890.824 1158.2 884.807 1146.43 L 883.608 1146.74 C 878.73 1159.65 866.348 1220.79 859.03 1227.2 L 856.987 1227.48 C 849.883 1220.42 842.661 1190.02 838.103 1182.56 C 835.873 1183.89 834.348 1185.27 831.885 1184.65 C 832.284 1181.2 833.727 1180.17 836.108 1177.39 C 836.618 1173.75 835.906 1172.6 834.727 1168.97 L 833.944 1167.75 L 832.548 1164.67 C 825.441 1163.3 814.015 1174.84 809.785 1180.31 C 811.495 1184.99 813.261 1189.76 814.742 1194.57 C 822.954 1221.25 816.51 1249.93 813.46 1276.93 C 813.392 1277.54 812.769 1278.16 812.379 1278.6 L 809.923 1276.9 C 808.596 1245.79 820.699 1216.07 803.806 1183.17 C 795.733 1183.15 788.416 1183.28 780.368 1182.25 L 780.433 1181.52 C 790.751 1179.17 795.451 1179.35 806.232 1179.19 C 808.878 1175.82 811.63 1172.19 814.341 1168.9 C 773.057 1171.15 728.26 1174.14 687.201 1174.97 L 628.514 1176.07 C 621.142 1176.19 608.772 1175.64 601.943 1176.89 C 597.754 1181.71 598.753 1212.35 597.26 1223.17 C 593.308 1251.82 569.093 1286.83 590.789 1313.79 C 597.458 1322.08 610.297 1324.02 619.966 1324.1 C 626.742 1323.18 636.799 1324.98 641.789 1322.28 C 633.713 1321.69 612.18 1321.08 606.363 1317.68 L 607.084 1316.41 C 615.667 1315.25 673.053 1320.78 684.201 1322.6 L 685.525 1323.86 L 684.599 1324.4 C 677.413 1326.15 671.373 1324.15 667.167 1326.7 C 686.084 1329.24 731.058 1333.48 745.966 1339.31 C 717.697 1341.96 677.022 1333.63 648.007 1330.98 C 632.398 1328.31 605.093 1332.17 591.249 1325.24 C 573.419 1316.32 573.405 1282.86 579.013 1267.17 C 584.505 1251.8 587.503 1237.3 591.042 1222.28 C 594.673 1206.88 589.611 1165.88 606.698 1158.84 C 608.309 1160.9 599.842 1173.14 604.069 1173.08 C 674.083 1172.1 744.31 1167.78 814.429 1165.7 C 819.436 1165.55 826.014 1163.58 830.87 1162.23 L 839.588 1152.78 C 834.417 1153.64 829.176 1154.12 823.961 1154.64 C 801.482 1156.89 616.761 1169.81 608.944 1163.41 L 608.931 1161.47 C 612.599 1159.12 622.169 1161.59 629.335 1159.76 C 630.595 1157.47 629.772 1156.76 629.103 1153.4 L 629.961 1152.13 L 631.504 1152.48 L 635.528 1158.88 L 636.575 1157.97 C 636.715 1155.39 615.771 1102.67 613.04 1095.86 C 605.32 1101.51 576.606 1124.34 568.182 1121.72 L 567.595 1119.86 C 570.352 1109.73 612.967 1076.57 621.319 1078.87 C 627.622 1085.38 650.387 1147.22 655.116 1159.92 C 669.778 1159.23 684.432 1158.36 699.074 1157.32 L 696.42 1146.95 C 687.421 1147.75 663.249 1150.4 655.856 1148.86 L 655.417 1147.97 C 662.612 1144.49 686.106 1143.1 695.447 1142.25 C 696.353 1138.62 697.176 1134.65 698.588 1131.15 C 709.449 1104.2 749.808 1100.86 756.084 1133.54 C 757.677 1141.83 756.231 1146.21 754.219 1154.33 C 763.257 1154.11 770.011 1152.83 777.702 1152.44 L 779.047 1152.38 L 779.377 1151.35 C 776.769 1149.91 774.21 1150.46 771.161 1150.66 C 786.199 1150.37 792.762 1152.26 809.179 1150.53 z"/>
<path transform="translate(0,0)" fill="rgb(223,221,224)" d="M 860.113 1175.97 C 853.952 1167.54 863.066 1167.55 855.953 1156.49 L 857.364 1155.11 C 862.152 1153.8 865.117 1154.38 869.984 1154.83 L 870.811 1156.87 C 871.14 1161.4 872.789 1161.1 873.755 1165.35 C 871.493 1167.78 867.616 1188.55 865.263 1195.25 L 863.697 1194.21 C 858.863 1189.48 861.489 1183.11 862.622 1176.9 L 860.113 1175.97 z"/>
<path transform="translate(0,0)" fill="rgb(3,2,3)" d="M 862.622 1176.9 C 863.233 1172.8 863.781 1166.76 865.455 1163.18 C 867.958 1162.46 866.638 1162.53 869.514 1163.61 C 869.668 1176.43 865.791 1183.5 863.697 1194.21 C 858.863 1189.48 861.489 1183.11 862.622 1176.9 z"/>
<path transform="translate(0,0)" fill="rgb(3,2,3)" d="M 860.113 1175.97 C 853.952 1167.54 863.066 1167.55 855.953 1156.49 L 857.364 1155.11 C 862.152 1153.8 865.117 1154.38 869.984 1154.83 L 870.811 1156.87 C 859.472 1159.25 860.45 1165.55 860.113 1175.97 z"/>
<path transform="translate(0,0)" fill="rgb(3,2,3)" d="M 641.789 1322.28 C 633.713 1321.69 612.18 1321.08 606.363 1317.68 L 607.084 1316.41 C 615.667 1315.25 673.053 1320.78 684.201 1322.6 L 685.525 1323.86 L 684.599 1324.4 C 670.307 1324.25 656.027 1323.54 641.789 1322.28 z"/>
<path transform="translate(0,0)" fill="rgb(223,221,224)" d="M 641.789 1322.28 C 656.027 1323.54 670.307 1324.25 684.599 1324.4 C 677.413 1326.15 671.373 1324.15 667.167 1326.7 C 663.799 1326.7 655.965 1325.77 652.033 1325.56 C 641.712 1325.02 629.999 1325.42 619.966 1324.1 C 626.742 1323.18 636.799 1324.98 641.789 1322.28 z"/>
<path transform="translate(0,0)" fill="rgb(254,252,253)" d="M 721.103 1116.12 C 728.433 1115.3 732.933 1115.05 739.379 1119.83 C 747.98 1126.2 755.092 1142.88 748.132 1152.49 C 745.477 1156.15 734.218 1155.69 729.764 1155.86 C 721.962 1156.63 715.712 1157 707.873 1157.2 C 696.665 1138.59 701.898 1124.98 721.103 1116.12 z"/>
<path transform="translate(0,0)" fill="rgb(3,2,3)" d="M 740.346 1138.54 C 740.928 1138.54 741.525 1138.97 742.152 1139.28 L 741.669 1141.44 C 737.913 1143.16 714.835 1144.2 709.241 1144.6 L 707.55 1143.7 L 707.513 1141.85 C 711.383 1138.31 733.574 1138.7 740.346 1138.54 z"/>
<path transform="translate(0,0)" fill="rgb(63,61,62)" d="M 716.971 1150.35 C 721.88 1149.96 724.711 1149.45 729.109 1151.57 L 729.496 1153.05 L 727.113 1153.98 C 722.628 1154.3 717.271 1154.85 713.104 1153.14 L 713.451 1151.76 L 716.971 1150.35 z"/>
<path transform="translate(0,0)" fill="rgb(254,252,253)" d="M 839.873 1080.36 C 844.643 1080.62 846.88 1080.6 849.886 1083.92 C 850.603 1093.13 832.032 1142.78 826.446 1149.8 C 822.417 1150.03 818.462 1151.01 815.787 1147.74 C 824.28 1125.45 832.311 1102.98 839.873 1080.36 z"/>
<path transform="translate(0,0)" fill="rgb(254,252,253)" d="M 618.051 1081.95 C 622.333 1085 643.761 1146.16 647.797 1155.46 C 648.632 1157.39 648.43 1158.54 647.673 1160.34 L 645.503 1159.58 C 641.135 1155.84 629.678 1122.74 626.6 1114.73 C 623.802 1106.62 619.513 1096.61 616.27 1088.5 C 605.347 1097.15 583.66 1112.67 571.6 1117.82 C 581.381 1106.79 605.491 1090.45 618.051 1081.95 z"/>
<path transform="translate(0,0)" fill="rgb(254,252,253)" d="M 841.305 1154.73 C 844.204 1157.7 852.989 1202.4 853.818 1208.27 L 852.955 1208.24 C 848.057 1194.49 839.796 1175.78 837.554 1161.5 C 837.153 1158.95 839.579 1156.55 841.305 1154.73 z"/>
<path transform="translate(0,0)" fill="rgb(3,2,3)" d="M 1157.92 1372.15 C 1163.63 1372.93 1170.7 1376.83 1170.66 1383.23 C 1163.53 1395.65 1113.65 1405.34 1095.18 1415.72 L 1094 1416.39 C 1094.22 1403.31 1095.27 1399.35 1086.24 1389.99 C 1067.38 1392.74 1051.09 1394.37 1032.16 1396.05 C 1034.89 1398.77 1037.97 1401.54 1040.8 1404.2 C 1048.58 1402.67 1065.87 1398.84 1072.98 1399.83 C 1062.08 1403.73 1054.57 1404.93 1043.23 1406.98 L 1048.07 1417.4 C 1054.67 1415.98 1067.24 1412.95 1073.63 1413.16 C 1070.13 1416.62 1054 1419.01 1048.52 1420 L 1048.87 1434.34 C 1046.92 1437.15 1046.82 1437.43 1044.12 1439.42 C 1041.08 1435.48 1048.03 1424.1 1040.07 1420.94 C 1036.42 1421.58 1035.85 1421.69 1032.62 1423.44 C 1031.8 1426.77 1033.74 1440.14 1036.68 1442.04 L 1041.48 1440.44 C 1040.67 1446.95 1024.39 1455.16 1019.5 1456.05 C 1005.73 1458.56 949.69 1477.68 939.54 1476.04 L 939.457 1474.75 C 948.887 1466.85 996.369 1458.63 1010.59 1454.06 C 1012.83 1453.34 1027.38 1449.98 1027.7 1447.56 C 1030.52 1426.6 1022.24 1407.24 1002.5 1398.14 C 981.776 1407.14 956.071 1414.98 934.204 1423.19 L 933.533 1423.7 C 932.999 1426.92 939.414 1432.37 941.328 1436.38 C 944.721 1443.51 945.6 1464.75 937.463 1468.39 C 934.375 1461.67 945.536 1451.99 930.566 1429.46 C 918.15 1424.48 917.169 1423.87 904.042 1424.92 C 888.673 1465.52 917.304 1457.01 916.47 1468.71 C 915.606 1468.91 914.643 1469.18 913.757 1469 C 890.956 1464.33 900.002 1450.46 888.209 1437.33 L 887.237 1436.26 C 886.699 1424.59 886.827 1422.31 890.93 1411.5 C 884.676 1411.11 877.269 1410.6 871.125 1409.47 C 848.554 1405.3 846.231 1407.11 847.322 1429.67 C 862.205 1446.66 869.234 1436.73 883.291 1444.91 L 883.151 1446.16 C 871.535 1449.56 843.704 1442.01 836.057 1431.87 C 827.472 1420.5 832.738 1406.25 843.394 1398.48 C 848.674 1394.65 854.857 1392.25 861.338 1391.53 C 873.242 1390.2 916.551 1397.84 930.737 1400.07 C 933.293 1398.34 937.351 1395.95 940.403 1395.75 C 960.94 1394.41 983.612 1395.64 1004.16 1396.11 C 1004.68 1395.61 1007.29 1393.79 1008.03 1393.25 C 1025.31 1393.04 1042.88 1390.14 1060.06 1388.31 C 1080.85 1386.1 1098.52 1387.38 1118.99 1381.88 C 1131.76 1378.44 1145.03 1375.6 1157.92 1372.15 z"/>
<path transform="translate(0,0)" fill="rgb(254,252,253)" d="M 858.758 1396.15 C 895.425 1394.26 933.26 1413.23 969.076 1401.01 C 970.797 1400.42 980.957 1400.66 983.267 1400.69 C 975.202 1404.18 964.776 1407.14 956.253 1409.82 C 945.522 1413.59 936.129 1418.56 926.514 1421.86 C 920.488 1419.93 913.749 1419.23 907.615 1417.8 C 904.179 1417.01 909.907 1414.63 908.694 1409.79 C 898.551 1405.61 852.403 1405.94 848.632 1400.4 C 851.176 1397.67 854.964 1397.18 858.758 1396.15 z"/>
<path transform="translate(0,0)" fill="rgb(254,252,253)" d="M 1144.42 1379.17 L 1146.98 1380.22 C 1151.18 1392.18 1132.09 1400.35 1124.03 1398.71 C 1123.15 1395.96 1124.06 1395.75 1125.67 1392.16 C 1127.65 1387.24 1131.25 1382.04 1137.35 1383.07 C 1138.1 1385.59 1135.92 1390.34 1134.94 1393.13 L 1135.49 1393.52 C 1141.3 1386.71 1140.07 1386.76 1144.42 1379.17 z"/>
<path transform="translate(0,0)" fill="rgb(254,252,253)" d="M 894.767 1411.96 C 896.802 1411.96 898.651 1412.1 900.676 1412.22 L 901.797 1413.58 C 902.109 1419.62 898.524 1428.43 896.572 1434.75 L 895.076 1436.39 L 893.507 1436.15 C 889.772 1429.85 892.817 1418.52 894.767 1411.96 z"/>
<path transform="translate(0,0)" fill="rgb(254,252,253)" d="M 1024.16 1406.37 C 1036.2 1405.29 1038.2 1406.75 1041.49 1418.72 C 1031.77 1419.48 1026.07 1417.42 1024.16 1406.37 z"/>
<path transform="translate(0,0)" fill="rgb(254,252,253)" d="M 1121.85 1386.12 L 1123.83 1386.47 C 1125.35 1393.55 1116.57 1402.39 1110.47 1405.22 L 1109.23 1404.94 L 1108.71 1403.57 C 1110.2 1399.07 1111.59 1395.27 1113.96 1391.12 C 1116.41 1386.82 1117.15 1387.49 1121.85 1386.12 z"/>
<path transform="translate(0,0)" fill="rgb(254,252,253)" d="M 1099.79 1390.38 C 1104.01 1389.89 1107.12 1388.48 1109.27 1392.59 C 1108.98 1396.67 1105.12 1402.76 1102.98 1406.68 L 1101.6 1407.57 L 1100.13 1407.13 C 1098.59 1402.69 1096.44 1396.35 1097.04 1391.65 L 1099.79 1390.38 z"/>
<path transform="translate(0,0)" fill="rgb(254,252,253)" d="M 1154.03 1376.59 C 1158.85 1377.09 1164.31 1378.03 1166.73 1382.45 C 1165.28 1385.74 1165.37 1384.87 1161.68 1387.2 C 1158.36 1388.57 1156.94 1389.47 1153.43 1389.55 C 1148.54 1386.22 1151.27 1380.86 1154.03 1376.59 z"/>
<path transform="translate(0,0)" fill="rgb(254,252,253)" d="M 840.183 1405.12 C 842.346 1405.37 842.215 1405.28 843.868 1406.69 C 844.948 1411.38 842.528 1424.01 841.683 1429.51 C 834.59 1424.12 837.082 1412.18 840.183 1405.12 z"/>
<path transform="translate(0,0)" fill="rgb(254,252,253)" d="M 1015.76 1398.37 C 1020.21 1397.94 1023.58 1397.04 1026.79 1399.61 L 1026.7 1401.93 C 1023.13 1402.78 1022.85 1402.8 1019.2 1402.63 C 1016.09 1400.58 1017.24 1401.92 1015.76 1398.37 z"/>
<path transform="translate(0,0)" fill="rgb(223,221,224)" d="M 940.473 1399.53 C 945.788 1398.47 951.9 1397.84 956.744 1400.49 C 951.219 1401.2 945.575 1402 940.473 1399.53 z"/>
<path transform="translate(0,0)" fill="rgb(3,2,3)" d="M 651.443 1385.01 C 653.994 1384.83 657.688 1384.6 659.852 1386.14 C 692.308 1409.37 724.006 1433.15 758.227 1453.94 C 765.088 1451.88 773.709 1448.46 780.576 1445.96 C 811.781 1459.79 809.033 1466.04 807.91 1497.31 C 794.741 1503.48 754.643 1522.06 742.597 1523.89 L 741.739 1522.85 C 745.148 1517.11 753.306 1515.97 759.34 1513.61 C 768.594 1509.91 777.774 1506.03 786.877 1501.97 C 790.199 1500.78 798.534 1496.31 802.078 1494.53 L 802.078 1471.98 C 783.591 1480.6 758.621 1491.28 739.986 1497.91 C 740.009 1506.16 739.835 1514.41 739.465 1522.65 C 715.002 1513.87 705.028 1501.82 703.94 1475.95 C 710.241 1472.1 717.159 1469.97 724.12 1467.51 C 702.812 1454.33 654.726 1425.22 637.878 1404.6 C 632.143 1397.59 644.139 1388.64 651.443 1385.01 z"/>
<path transform="translate(0,0)" fill="rgb(254,252,253)" d="M 652.639 1389.81 C 654.448 1389.72 656.991 1389.69 658.462 1390.86 C 667.49 1398 676.408 1405.32 685.656 1412.15 C 707.035 1427.86 729.089 1442.62 751.754 1456.4 C 747.69 1458.77 743.803 1460.35 739.499 1462.22 C 736.527 1463.32 735.216 1463.67 732.113 1464.37 C 723.442 1462.56 651.869 1414.09 642.939 1402.89 C 641.514 1401.1 642.255 1398.55 642.817 1396.47 C 645.451 1392.92 648.63 1391.83 652.639 1389.81 z"/>
<path transform="translate(0,0)" fill="rgb(254,252,253)" d="M 776.124 1452.06 C 782.289 1451.31 798.528 1461.69 800.388 1466.61 C 795.306 1472.08 749.854 1490.12 740.088 1494.04 C 737.912 1493.63 718.024 1478.39 712.941 1475.44 C 735.229 1467.86 754.185 1460.5 776.124 1452.06 z"/>
<path transform="translate(0,0)" fill="rgb(254,252,253)" d="M 708.746 1478.56 C 712.423 1480.17 729.447 1493.98 734.995 1497.66 C 735.145 1503.49 734.979 1509.6 734.908 1515.46 C 718.78 1507.72 710.312 1496.24 708.746 1478.56 z"/>
<path transform="translate(0,0)" fill="rgb(3,2,3)" d="M 1469 352.597 C 1473.88 352.682 1474.71 353.185 1478.07 356.686 C 1479.31 360.819 1479.25 359.071 1478.26 363.315 C 1474.71 363.805 1476.04 359.155 1470.29 356.936 C 1466.4 358.95 1452.86 398.525 1450.64 405.389 L 1459.68 410.264 C 1463.94 402.331 1476 375.079 1479.81 370.8 L 1480.94 371.387 C 1481.2 382.506 1451.98 432.404 1445.25 444.067 C 1446.6 445.456 1448.11 447.043 1449.15 448.668 C 1454.49 456.976 1448.56 488.105 1435.56 485.241 C 1435.88 482.931 1439.28 480.15 1441.25 478.062 L 1441.1 476.396 C 1438.48 474.046 1438.67 474.101 1435.23 473.425 C 1433.62 474.213 1432.22 474.839 1432.37 477.016 C 1433.92 499.73 1432.18 522.13 1430.06 544.759 C 1429.43 551.531 1428.59 576.132 1417.87 574.968 C 1403.79 573.44 1408.11 552.963 1408.93 543.5 C 1409.65 524.017 1412.98 504.78 1413.29 484.251 C 1409.77 482.897 1406.32 481.296 1402.88 479.759 C 1397.31 471.563 1397.2 468.561 1396.92 459.019 C 1370.8 450.7 1346.28 434.05 1322.05 421.26 C 1319.23 419.768 1314.42 416.938 1313.83 413.662 C 1313.06 409.314 1313.33 402.34 1318.44 400.969 C 1336.02 405.631 1386.71 434.401 1402.48 443.952 C 1412.96 432.94 1415.98 433.368 1430.31 437.842 C 1444.42 412.325 1452.82 384.318 1464.46 357.771 C 1465.08 356.357 1467.79 353.728 1469 352.597 z"/>
<path transform="translate(0,0)" fill="rgb(254,252,253)" d="M 1417.11 439.243 C 1429.87 440.589 1431.8 444.676 1435.43 456.162 C 1433.21 468.083 1431.08 474.137 1418.98 479.177 C 1393.47 480.193 1395.46 444.254 1417.11 439.243 z"/>
<path transform="translate(0,0)" fill="rgb(254,252,253)" d="M 1425.73 515.295 C 1428.33 517.74 1424.55 564.398 1420.86 569.303 C 1419.52 571.083 1417.07 570.554 1415.1 570.599 C 1414.74 570.27 1413.19 568.844 1413.07 568.398 C 1410.76 560.106 1414.31 524.266 1416.51 517.6 C 1419.21 515.253 1421.99 515.572 1425.73 515.295 z"/>
<path transform="translate(0,0)" fill="rgb(254,252,253)" d="M 1317.1 406.43 C 1325.93 409.135 1354.23 422.609 1361.17 428.013 C 1362.49 430.756 1361.48 433.419 1360.82 436.495 C 1348.22 429.32 1331.24 422.901 1319.54 413.928 C 1316.56 411.647 1317.17 409.771 1317.1 406.43 z"/>
<path transform="translate(0,0)" fill="rgb(254,252,253)" d="M 1448.78 410.264 C 1451.76 411.211 1455.12 412.004 1458.18 412.802 C 1453.9 421.441 1446.87 432.892 1441.92 441.481 C 1440.58 443.061 1441.31 442.356 1439.03 443.155 C 1435.8 441.231 1436.81 442.543 1435.53 439.41 C 1436.12 431.461 1444.71 417.601 1448.78 410.264 z"/>
<path transform="translate(0,0)" fill="rgb(254,252,253)" d="M 1365.35 430.342 C 1374.25 434.68 1389.75 441.362 1397.5 447.921 C 1399.1 449.276 1398.15 452.042 1397.84 454.424 C 1390.83 452.779 1371.78 443.778 1366.35 438.183 C 1364.13 435.897 1365.06 433.447 1365.35 430.342 z"/>
<path transform="translate(0,0)" fill="rgb(254,252,253)" d="M 1420.92 485.956 C 1425.03 486.208 1424.86 485.477 1427.08 487.647 C 1429.48 496.139 1429.7 500.438 1426.97 509.401 C 1426.37 511.396 1424 511.419 1421.62 512.046 C 1420.47 511.843 1417.73 511.707 1417.47 510.764 C 1415.79 504.752 1416.2 489.669 1420.92 485.956 z"/>
<path transform="translate(0,0)" fill="rgb(63,61,62)" d="M 1216.4 189.743 C 1208.4 190.514 1209.79 189.607 1209.85 200.507 L 1210.44 550.776 L 1210.46 674.784 C 1210.44 687.378 1212.18 754.006 1206.54 759.788 C 1203.75 756.39 1204.81 709.258 1204.81 701.741 L 1204.82 601.848 L 1205.15 306.685 C 1205.24 267.978 1206.64 227.898 1206.11 189.577 C 1208.31 187.362 1208.21 188.026 1212 187.346 L 1216.4 189.743 z"/>
<path transform="translate(0,0)" fill="url(#Gradient1)" d="M 1240.86 1211.05 C 1238.88 1137.19 1239.98 1059.57 1240.03 985.351 L 1240.08 913.952 C 1240.09 903.343 1239.96 892.093 1240.26 881.449 C 1240.33 879.06 1241.88 877.545 1243.66 876.202 L 1245.37 876.484 C 1248.49 881.726 1246.89 1172.07 1246.89 1204.01 C 1262.01 1202.11 1279.05 1201.77 1294.24 1201.61 C 1294.91 1203.85 1295.59 1206.08 1296.3 1208.3 C 1277.49 1209.35 1259.57 1207.57 1240.86 1211.05 z"/>
<path transform="translate(0,0)" fill="rgb(3,2,3)" d="M 1212 187.346 C 1252.45 175.85 1678.48 90.6337 1691.08 96.2333 L 1691.62 98.0642 C 1685.68 101.519 1588.01 116.753 1573.6 119.431 C 1511.68 130.973 1449.84 142.873 1388.06 155.131 C 1333.86 165.417 1270.1 176.734 1216.4 189.743 L 1212 187.346 z"/>
<path transform="translate(0,0)" fill="rgb(63,61,62)" d="M 1204.78 884.239 C 1208.16 885.005 1207.87 884.399 1209.98 886.454 C 1211.01 898.462 1210.2 922.53 1210.19 935.588 L 1210.17 1034.5 L 1210.23 1192.87 C 1210.29 1224.12 1210.92 1256.83 1210.2 1287.89 L 1205.7 1286.7 C 1203.73 1282.9 1204.7 919.618 1204.78 884.239 z"/>
<path transform="translate(0,0)" fill="rgb(3,2,3)" d="M 850.923 1276.81 C 899.739 1291.17 956.513 1298.25 1006.04 1311.58 C 1021.69 1315.78 1042.35 1319.03 1056.84 1325.39 C 1049.98 1325.33 1045.59 1324.71 1038.74 1323.75 C 983.542 1313.26 926.836 1299.47 871.979 1286.89 C 867.357 1285.84 863.104 1284.25 858.327 1283.86 C 857.087 1285.32 856.092 1286.42 854.759 1287.8 L 852.822 1287.26 L 851.578 1283.79 C 848.825 1283.12 841.765 1287.96 838.05 1289.87 C 842.132 1284 845.237 1280.95 850.923 1276.81 z"/>
<path transform="translate(0,0)" fill="rgb(3,2,3)" d="M 832.341 1297.58 C 835.637 1300.92 817.95 1331.46 825.643 1341.86 C 833.896 1339.81 841.013 1310.78 848.413 1303.92 C 850.018 1313.7 838.349 1334.75 832.483 1343.13 C 828.768 1346.24 827.343 1348.11 822.547 1346.54 C 819.653 1343.29 819.577 1340.91 818.64 1336.62 C 809.593 1339.84 784.624 1345.33 776.402 1339.99 L 777.372 1338.66 C 782.066 1337.06 810.602 1334.19 818.554 1332.99 C 823.256 1318.55 821.043 1311.24 832.341 1297.58 z"/>
<path transform="translate(0,0)" fill="rgb(3,2,3)" d="M 729.556 1178.42 C 735.823 1177.61 755.169 1177.36 760.872 1179.02 L 760.929 1180.12 C 755.483 1181.17 749.801 1181.13 744.267 1181.46 C 707.771 1183.64 671.425 1187.79 634.832 1188.09 C 621.943 1188.11 609.053 1188.01 596.165 1187.8 C 611.602 1183.97 637.93 1184.11 654.607 1183.32 C 679.61 1182 704.595 1180.37 729.556 1178.42 z"/>
<path transform="translate(0,0)" fill="rgb(3,2,3)" d="M 1244.78 733.683 C 1245.78 734.649 1246.49 735.773 1246.5 738.034 C 1246.55 766.007 1247.23 794.942 1245.5 822.794 C 1244.81 823.606 1244.12 824.418 1243.43 825.23 C 1241.14 822.91 1240.57 821.877 1240.51 817.742 C 1240.14 792.098 1239.15 765.05 1240.98 739.55 C 1241.1 737.912 1243.74 734.878 1244.78 733.683 z"/>
<path transform="translate(0,0)" fill="rgb(3,2,3)" d="M 775.384 1092.18 C 786.733 1091.02 798.375 1091.47 805.933 1101.53 C 809.548 1106.35 810.909 1112.49 809.667 1118.38 C 807.513 1128.79 801.068 1133.3 792.938 1138.34 C 798.182 1126.68 805.969 1124.03 802.892 1109.97 C 783.231 1077.3 753.176 1111.98 747.186 1110.38 C 748.276 1100.44 767.114 1093.87 775.384 1092.18 z"/>
<path transform="translate(0,0)" fill="rgb(3,2,3)" d="M 877.066 1367.28 C 879.726 1366.98 881.809 1366.38 884.086 1367.58 C 879.116 1371.97 823.612 1385.27 812.421 1388.17 C 809.426 1388.98 807.942 1389.37 805.454 1387.53 C 808.765 1382.63 867.3 1369.16 877.066 1367.28 z"/>
<path transform="translate(0,0)" fill="rgb(3,2,3)" d="M 914.607 1312.77 C 918.112 1332.33 870.112 1328.54 858.047 1332.27 C 852.344 1334.03 847.083 1336.22 841.568 1338.42 C 841.254 1323.71 897.337 1326.28 907.089 1319.64 C 911.669 1316.52 910.989 1317.11 914.607 1312.77 z"/>
<path transform="translate(0,0)" fill="rgb(3,2,3)" d="M 1083.61 1421.23 C 1085.35 1421.05 1085.9 1421.23 1087.66 1421.41 L 1088.12 1423.16 C 1082.5 1431.95 1049.3 1446.73 1038.51 1448.36 C 1044.52 1443.03 1045.64 1442.52 1052.8 1439.34 C 1060.77 1435.03 1066.62 1432.72 1074.93 1427.74 C 1069.51 1428.94 1058.34 1432.77 1053.44 1431.47 C 1058.6 1426.74 1076.48 1422.41 1083.61 1421.23 z"/>
<path transform="translate(0,0)" fill="rgb(3,2,3)" d="M 1001.29 1419.24 C 1007.1 1421.63 1008.55 1432.15 1003.68 1435.95 C 1002 1432.48 1001.81 1427.32 1001.36 1423.33 C 993.914 1425.23 977.48 1426.98 973.73 1431.31 L 974.753 1435.78 C 975.808 1440.34 975.478 1443.59 974.065 1447.93 L 972.893 1447.67 C 969.761 1440.91 969.071 1433.85 965.909 1425.58 C 978.276 1423.92 989.102 1421.8 1001.29 1419.24 z"/>
<path transform="translate(0,0)" fill="rgb(3,2,3)" d="M 1207.25 772.522 C 1208.45 773.423 1209.39 773.714 1209.42 775 C 1209.65 784.138 1210.43 832.434 1207.79 837.654 L 1206.07 836.927 C 1203.41 832.961 1204.03 779.003 1207.25 772.522 z"/>
<path transform="translate(0,0)" fill="rgb(3,2,3)" d="M 818.84 1179.51 C 820.829 1179.98 850.581 1225.23 852.376 1229.94 C 838.161 1224.87 821.661 1193.82 818.84 1179.51 z"/>
<path transform="translate(0,0)" fill="rgb(3,2,3)" d="M 804.44 1391.15 C 814.212 1393.85 819.497 1394.45 826.408 1401.86 C 824.655 1410.88 824.754 1420.4 825.389 1429.55 C 825.664 1433.52 826.797 1435.73 826.618 1439.83 L 824.78 1440.68 C 815.996 1431.16 819.383 1411.96 823.731 1401.08 C 817.505 1399.7 808.484 1398.57 804.286 1393.97 L 804.44 1391.15 z"/>
<path transform="translate(0,0)" fill="rgb(3,2,3)" d="M 800.199 1395.24 L 801.932 1396.14 C 802.909 1399.13 800.557 1412.67 800.892 1417.65 C 801.406 1425.31 810.142 1438.28 809.213 1443.66 C 792.737 1436.56 794.754 1409.11 800.199 1395.24 z"/>
<path transform="translate(0,0)" fill="rgb(3,2,3)" d="M 801.454 1137.44 C 805.227 1136.76 807.452 1136.91 810.654 1138.7 L 810.44 1140.05 C 802.968 1143.58 783.15 1143.26 773.63 1143.71 C 769.311 1144.1 764.654 1145.6 762.331 1141.61 L 763.21 1139.74 C 769.197 1138.54 793.989 1137.86 801.454 1137.44 z"/>
<path transform="translate(0,0)" fill="rgb(3,2,3)" d="M 777.071 1484.67 L 779.116 1485.34 L 779.183 1486.59 C 774.757 1489.29 765.245 1494.12 766.265 1499.49 C 775.314 1507.54 785.46 1496.69 788.897 1488.7 L 790.164 1488.25 L 792.121 1491.49 C 788.597 1503.07 768.767 1512.63 762.34 1500.03 C 762.415 1492.28 770.605 1487.26 777.071 1484.67 z"/>
<path transform="translate(0,0)" fill="rgb(3,2,3)" d="M 601.148 1200.62 C 615.832 1206.43 625.549 1238.58 626.999 1253.24 C 623.402 1250.53 617.146 1229.13 613.214 1222.2 C 610.602 1217.6 602.946 1204.66 601.148 1200.62 z"/>
<path transform="translate(0,0)" fill="rgb(3,2,3)" d="M 599.688 1253.46 C 603.529 1255.54 597.493 1264.67 596.685 1270.69 C 594.667 1285.72 596.851 1291.52 601.173 1304.82 C 584.185 1297.31 592.869 1265.74 599.688 1253.46 z"/>
<path transform="translate(0,0)" fill="rgb(3,2,3)" d="M 864.053 1129.4 C 871.637 1128.67 875.295 1128.95 882.988 1129.49 C 874.357 1133.69 865.386 1134.29 855.871 1135.68 C 850.298 1136.46 848.551 1136.91 842.964 1135.97 L 842.364 1134.64 C 849.446 1130.14 855.872 1130.14 864.053 1129.4 z"/>
<path transform="translate(0,0)" fill="rgb(3,2,3)" d="M 809.389 1296.45 C 813.88 1298.66 815.295 1323.77 814.085 1328.28 C 805.866 1322.36 805.462 1304.79 809.389 1296.45 z"/>
<path transform="translate(0,0)" fill="rgb(3,2,3)" d="M 890.168 1366.38 C 895.746 1370.03 898.308 1380.83 897.224 1387.22 L 895.944 1387.68 C 893.206 1384.71 892.891 1381.5 891.879 1377.47 C 887.897 1380.44 885.904 1382.22 881.125 1383.88 C 881.082 1380.95 888.822 1375.56 890.168 1366.38 z"/>
<path transform="translate(0,0)" fill="rgb(3,2,3)" d="M 860.64 1139.4 C 864.837 1139.06 866.207 1138.84 870.424 1139.43 L 870.65 1140.64 L 866.092 1143.62 C 866.754 1145.21 867.449 1146.79 868.177 1148.35 L 866.858 1150.45 C 863.75 1149.77 864.649 1145.71 858.797 1143.24 C 856.195 1143.64 857.167 1143.02 855.637 1144.87 C 858.766 1147.11 859.021 1147.16 860.557 1150.55 L 859.659 1151.55 C 852.614 1148.78 859.343 1145.05 846.35 1143.38 L 846.005 1142.49 C 851.622 1139.69 854.392 1139.83 860.64 1139.4 z"/>
<path transform="translate(0,0)" fill="rgb(3,2,3)" d="M 607.148 1196.95 C 617.38 1196.99 631.282 1209.89 635.097 1219.07 C 634.336 1218.75 607.688 1197.66 607.148 1196.95 z"/>
<path transform="translate(0,0)" fill="rgb(3,2,3)" d="M 802.017 1218.73 C 807.302 1222.68 804.282 1242.43 802.991 1248.29 L 802.223 1248.34 L 801.246 1247.04 C 800.8 1240.91 800.032 1224.1 802.017 1218.73 z"/>
<path transform="translate(0,0)" fill="rgb(3,2,3)" d="M 1241.61 839.16 C 1244.76 839.742 1243.52 839.012 1245.6 841.146 C 1246.82 846.665 1246.55 854.041 1244.9 859.402 C 1242.13 859.01 1243.31 859.546 1241.19 857.825 C 1239.73 851.279 1240.47 845.728 1241.61 839.16 z"/>
<path transform="translate(0,0)" fill="rgb(3,2,3)" d="M 800.446 1307.75 L 801.53 1309.99 C 799.902 1319.07 794.124 1327.42 787.739 1333.88 L 786.921 1332.79 C 786.88 1330.62 798.587 1310.15 800.446 1307.75 z"/>
<path transform="translate(0,0)" fill="rgb(3,2,3)" d="M 991.643 1444.09 L 992.348 1444.98 L 991.816 1446.74 C 987.087 1450.66 980.145 1453.1 974.372 1455.12 L 973.153 1453.47 C 975.434 1449.12 986.446 1445.99 991.643 1444.09 z"/>
<path transform="translate(0,0)" fill="rgb(3,2,3)" d="M 829.445 1232.56 L 830.656 1233.83 C 830.559 1238.25 826.284 1253.1 824.953 1258.17 L 823.886 1257.81 C 822.673 1251 825.757 1238.51 829.445 1232.56 z"/>
<path transform="translate(0,0)" fill="rgb(3,2,3)" d="M 1207.15 850.718 L 1208.74 852.585 C 1209.5 858.139 1210.01 865.152 1207.49 870.254 L 1205.46 867.828 C 1204.57 862 1204.01 855.656 1207.15 850.718 z"/>
<path transform="translate(0,0)" fill="rgb(3,2,3)" d="M 864.333 1242.32 L 865.002 1242.95 L 864.415 1244.42 C 858.691 1247.49 854.512 1248.35 848.259 1246.82 C 847.176 1245.41 847.202 1245.53 846.942 1243.79 C 855.513 1243.07 855.799 1244.96 864.333 1242.32 z"/>
<path transform="translate(0,0)" fill="rgb(63,61,62)" d="M 711.504 1195.41 C 716.287 1194.87 724.17 1193.5 728.381 1195.4 L 728.175 1197.89 C 722.757 1197.56 717.623 1198.08 712.432 1197.55 L 711.504 1195.41 z"/>
<path transform="translate(0,0)" fill="rgb(3,2,3)" d="M 900.339 1233.64 L 901.626 1234.85 C 902.526 1240.12 899.886 1248.06 898.322 1253.18 L 897.58 1252.62 C 898.139 1247.21 898.711 1238.55 900.339 1233.64 z"/>
<path transform="translate(0,0)" fill="rgb(3,2,3)" d="M 833.944 1167.75 L 834.727 1168.97 C 832.453 1172.2 830.45 1175.26 826.901 1176.81 L 826.322 1175.69 C 828.168 1171.72 830.513 1170.37 833.944 1167.75 z"/>
</svg>